<svg width="206" height="131" viewBox="0 0 206 131" fill="none" xmlns="http://www.w3.org/2000/svg">
<rect opacity="0.2" width="206" height="131" rx="4" fill="#D9D9D9"/>
<path opacity="0.6" d="M0 4C0 1.79086 1.79086 0 4 0H202C204.209 0 206 1.79086 206 4V13H0V4Z" fill="#D9D9D9"/>
<circle cx="6.5" cy="6.5" r="2.5" fill="#FF3E09"/>
<circle cx="15.5" cy="6.5" r="2.5" fill="#08C814"/>
<circle cx="24.5" cy="6.5" r="2.5" fill="#FDC51A"/>
<circle cx="21.5" cy="107.5" r="15.5" fill="#0777E6"/>
<path d="M20.8622 98C21.2846 98 21.707 98 22.1294 98C22.3659 98.0338 22.6025 98.0506 22.839 98.0928C26.7252 98.8103 29.3526 100.996 30.5776 104.778C30.7888 105.419 30.8648 106.112 31 106.778V108.213C30.9493 108.526 30.8986 108.846 30.8395 109.159C30.1636 112.586 28.2036 114.991 24.9764 116.308C24.1063 116.662 23.1432 116.772 22.2139 117H20.7777C20.5749 116.966 20.3637 116.941 20.161 116.907C16.2832 116.207 13.6812 114.012 12.4309 110.264C12.2112 109.606 12.1352 108.905 12 108.222C12 107.774 12 107.319 12 106.871C12.0338 106.635 12.0507 106.407 12.0929 106.171C12.7434 102.507 14.7541 99.9245 18.2517 98.5993C19.0796 98.287 19.992 98.1941 20.8622 98ZM21.5465 99.5278C17.2801 99.4602 13.5967 103.014 13.5207 107.268C13.4362 111.733 16.9337 115.413 21.3859 115.447C25.855 115.481 29.3526 112.012 29.454 107.589C29.5554 103.225 25.9733 99.5953 21.5465 99.5278Z" fill="white"/>
<path d="M21.5103 109.391C21.1779 110.305 20.8455 111.219 20.513 112.142C20.3596 112.569 20.2147 112.996 20.0527 113.415C19.8737 113.885 19.456 114.09 19.0468 113.936C18.6206 113.774 18.4416 113.372 18.6121 112.885C18.8167 112.279 19.0042 111.672 19.2599 111.091C19.7884 109.878 19.9078 108.605 19.9248 107.306C19.9362 106.543 19.564 106.087 18.8082 105.939C18.1177 105.802 17.4187 105.674 16.7283 105.537C16.2253 105.435 15.9355 105.076 16.0122 104.649C16.0975 104.187 16.5322 103.931 17.0437 104.016C18.5865 104.298 20.1124 104.794 21.6979 104.657C23.1129 104.538 24.5194 104.256 25.9344 104.033C26.48 103.948 26.8891 104.153 26.9829 104.614C27.0766 105.05 26.7783 105.435 26.2583 105.529C25.3462 105.708 24.4256 105.888 23.505 106.041C23.1129 106.11 22.9509 106.272 22.9765 106.691C23.0958 108.237 23.3771 109.75 23.9568 111.202C24.1699 111.74 24.3574 112.287 24.5535 112.843C24.741 113.372 24.5535 113.817 24.1102 113.962C23.7011 114.099 23.2834 113.859 23.0958 113.355C22.6867 112.227 22.2775 111.091 21.8684 109.963C21.8002 109.767 21.7064 109.579 21.6212 109.382C21.5871 109.382 21.5444 109.382 21.5103 109.391Z" fill="white"/>
<path d="M21.5 104C20.6615 104 19.9908 103.325 20.0001 102.491C20.0001 101.666 20.6615 101 21.4721 101C22.3105 101 22.9813 101.647 22.9999 102.481C23.0092 103.306 22.3291 104 21.5093 104H21.5Z" fill="white"/>
</svg>
