<svg width="27" height="16" viewBox="0 0 27 16" fill="none" xmlns="http://www.w3.org/2000/svg">
<path d="M25.5379 6.47155L27 4.36144L20.4371 2.17449C18.4287 0.938749 16.0611 0 13.5003 0C6.16893 0 0.405597 7.69483 0.162603 8.0209C-0.109468 8.39058 -0.0326235 8.9098 0.33706 9.18187C0.704668 9.45394 1.22596 9.37502 1.49803 9.00741C1.55203 8.93472 6.99553 1.65942 13.4982 1.65942C20.0009 1.65942 25.4444 8.93265 25.4984 9.00741C25.6604 9.22756 25.9117 9.34387 26.1672 9.34387C26.3396 9.34387 26.5119 9.29195 26.6594 9.18187C27.0291 8.9098 27.108 8.38851 26.8338 8.0209C26.7695 7.93367 26.3084 7.32099 25.5358 6.47155H25.5379Z" fill="white"/>
<path d="M13.6041 13.6037C8.46801 13.6037 3.77842 9.22977 3.26128 8.73132L2.10861 9.9276C3.0349 10.8186 7.93633 15.2652 13.6041 15.2652C19.2719 15.2652 23.9179 10.8871 24.813 10.0086L23.65 8.82271C22.8358 9.62023 18.5222 13.6037 13.6041 13.6037Z" fill="white"/>
<path opacity="0.5" d="M16.2192 7.63259C16.2192 6.05265 14.9369 4.77039 13.357 4.77039C11.777 4.77039 10.4948 6.05265 10.4948 7.63259C10.4948 9.21252 11.777 10.4948 13.357 10.4948C14.9369 10.4948 16.2192 9.21252 16.2192 7.63259ZM11.8473 7.63259C11.8473 7.45268 11.9929 7.30548 12.1745 7.30548H14.5018C14.6817 7.30548 14.8289 7.45268 14.8289 7.63259C14.8289 7.8125 14.6817 7.9597 14.5018 7.9597H12.1745C11.9929 7.9597 11.8473 7.8125 11.8473 7.63259Z" fill="white"/>
<path opacity="0.7" d="M13.3569 12.4029C10.7264 12.4029 8.58661 10.263 8.58661 7.63252C8.58661 5.00202 10.7264 2.86218 13.3569 2.86218C15.9874 2.86218 18.1273 5.00202 18.1273 7.63252C18.1273 10.263 15.9874 12.4029 13.3569 12.4029ZM13.3569 3.64101C11.1567 3.64101 9.36544 5.43232 9.36544 7.63252C9.36544 9.83272 11.1567 11.624 13.3569 11.624C15.5571 11.624 17.3485 9.83272 17.3485 7.63252C17.3485 5.43232 15.5571 3.64101 13.3569 3.64101Z" fill="white"/>
</svg>
