<svg width="22" height="21" viewBox="0 0 22 21" fill="none" xmlns="http://www.w3.org/2000/svg">
<g opacity="0.5">
<path d="M6.82782 5.86328H4.30447C3.57381 5.86328 2.979 6.45808 2.979 7.18875V11.4683C2.979 11.6506 3.12812 11.7997 3.31037 11.7997C3.49262 11.7997 3.64174 11.6506 3.64174 11.4683V7.18875C3.64174 6.82259 3.93831 6.52601 4.30447 6.52601H6.82782C7.01007 6.52601 7.15919 6.3769 7.15919 6.19465C7.15919 6.0124 7.01007 5.86328 6.82782 5.86328Z" fill="white"/>
<path d="M17.5591 9.22339C17.3768 9.22339 17.2277 9.3725 17.2277 9.55475V13.8161C17.2277 14.1823 16.9311 14.4789 16.565 14.4789H14.0416C13.8594 14.4789 13.7103 14.628 13.7103 14.8102C13.7103 14.9925 13.8594 15.1416 14.0416 15.1416H16.565C17.2956 15.1416 17.8904 14.5468 17.8904 13.8161V9.55475C17.8904 9.3725 17.7413 9.22339 17.5591 9.22339Z" fill="white"/>
<path d="M11.0974 9.83972H9.77197V11.1652H11.0974V9.83972Z" fill="white"/>
<path d="M8.4465 9.83972H7.12103V11.1652H8.4465V9.83972Z" fill="white"/>
<path d="M13.7484 9.83972H12.4229V11.1652H13.7484V9.83972Z" fill="white"/>
</g>
<path d="M12.8504 17.0933L11.4967 17.6583C11.684 17.1463 11.8861 16.5913 11.8861 16.5913C11.9656 16.3991 11.9756 16.1837 11.8861 15.9816L11.3377 14.7539C10.9119 13.8675 9.59636 14.401 9.91613 15.3354L10.2624 16.2616L9.80346 17.2954L8.0174 17.2888L7.58 16.7321C7.74071 16.2881 7.76722 15.8225 7.67444 15.3818L9.59967 14.7373C9.94429 14.6213 10.1514 14.2717 10.0884 13.9139C10.0255 13.556 9.70902 13.2992 9.34618 13.3091L5.46588 13.4201C5.05002 13.3853 4.63581 13.4533 4.25805 13.6173L0 15.4431V19.9878L2.38252 18.7038L8.73315 20.8974C8.89055 20.9802 9.06949 21.0217 9.25837 20.9885L12.9664 20.3573C13.3656 20.2877 13.649 19.9182 13.6009 19.5106C13.5529 19.0964 13.1834 18.8015 12.7725 18.8363L13.4866 18.49C13.8494 18.3127 14.0184 17.8803 13.861 17.5026C13.697 17.1115 13.248 16.926 12.8553 17.09L12.8504 17.0933Z" fill="white"/>
<path d="M18.6559 2.29621L12.3053 0.102565C12.1479 0.0197233 11.969 -0.0216975 11.7801 0.0114391L8.07209 0.642691C7.6728 0.712278 7.38948 1.08175 7.43753 1.48933C7.48558 1.90354 7.85505 2.19845 8.26594 2.16366L7.55185 2.50994C7.189 2.68722 7.02001 3.11965 7.17741 3.49741C7.34143 3.88842 7.79043 4.07399 8.1831 3.90996L9.53673 3.34498C9.34951 3.85694 9.14738 4.41198 9.14738 4.41198C9.06785 4.60417 9.05791 4.81956 9.14738 5.02169L9.69579 6.2494C10.1216 7.13581 11.4371 6.60231 11.1173 5.66786L10.7711 4.74169L11.23 3.70783L13.0161 3.71445L13.4535 4.27115C13.2928 4.71518 13.2663 5.18075 13.359 5.62147L11.4338 6.26597C11.0892 6.38195 10.8821 6.73154 10.945 7.08942C11.008 7.44729 11.3245 7.7041 11.6873 7.69416L15.5676 7.58315C15.9835 7.61795 16.3977 7.55001 16.7754 7.38599L21.0335 5.56016V1.01216L18.651 2.29621H18.6559Z" fill="white"/>
</svg>
