<svg width="20" height="21" viewBox="0 0 20 21" fill="none" xmlns="http://www.w3.org/2000/svg">
<path d="M10.1118 4.01346C7.3468 4.20476 5.12755 6.50567 5.00531 9.30399C4.99153 9.61182 5.00531 9.91617 5.03802 10.2136L5.23601 11.1666C7.19529 11.7371 8.6329 13.5632 8.6329 15.7232C8.6329 17.1876 7.97177 18.4989 6.93532 19.3685L7.06617 20.0051C7.68942 20.6798 8.60363 21.0764 9.60738 20.9877C11.0932 20.8572 12.2932 19.6363 12.4137 18.1355C12.4154 18.1094 12.4172 18.0833 12.4189 18.0572C12.517 16.3006 13.2728 14.6658 14.4763 13.3945C15.4215 12.398 16 11.0449 16 9.55616C16 6.35958 13.3262 3.79084 10.1118 4.01346ZM12.7512 11.8101C12.684 11.8779 12.5962 11.911 12.5067 11.911C12.4172 11.911 12.3311 11.8779 12.2639 11.8101C12.1296 11.6745 12.1296 11.4536 12.2639 11.3179C13.2109 10.3614 13.2109 8.80485 12.2639 7.85005C11.317 6.89351 9.77782 6.89351 8.8309 7.85005C8.6966 7.9857 8.47795 7.9857 8.34366 7.85005C8.20937 7.71439 8.20937 7.49352 8.34366 7.35786C9.55917 6.13002 11.5357 6.13002 12.7512 7.35786C13.9667 8.58571 13.9667 10.5823 12.7512 11.8101Z" fill="white"/>
<path opacity="0.4" d="M3.81742 12.0081C1.71277 12.0081 0 13.7208 0 15.8255C0 17.9301 1.71277 19.6429 3.81742 19.6429C5.92208 19.6429 7.63485 17.9301 7.63485 15.8255C7.63485 13.7208 5.92208 12.0081 3.81742 12.0081ZM0.699803 15.8255C0.699803 14.1075 2.09766 12.7079 3.81742 12.7079C4.56621 12.7079 5.25377 12.9738 5.79262 13.4147L1.40835 17.7989C0.967477 17.2601 0.701552 16.5725 0.701552 15.8237L0.699803 15.8255ZM3.81742 18.9431C3.09838 18.9431 2.43881 18.6964 1.91046 18.287L6.27723 13.9203C6.68662 14.4486 6.9333 15.1082 6.9333 15.8272C6.9333 17.5452 5.53544 18.9449 3.81567 18.9449L3.81742 18.9431Z" fill="white"/>
<path opacity="0.4" d="M19.9811 6.93439C18.9734 3.43363 16.1322 0.781373 12.5667 0.00984068C12.3306 -0.040895 12.0979 0.109563 12.0471 0.345746C11.9964 0.581929 12.1469 0.814614 12.383 0.865349C15.6336 1.56865 18.2246 3.98647 19.1431 7.17757C19.1991 7.37002 19.3741 7.49423 19.563 7.49423C19.6033 7.49423 19.6435 7.48898 19.6837 7.47674C19.9164 7.41025 20.0494 7.16707 19.9829 6.93614L19.9811 6.93439Z" fill="white"/>
<path opacity="0.4" d="M11.9736 1.81355C11.7374 1.76282 11.5047 1.91327 11.454 2.14946C11.4033 2.38564 11.5537 2.61832 11.7899 2.66906C14.4719 3.24815 16.6098 5.24258 17.3673 7.87734C17.4233 8.06979 17.5983 8.194 17.7872 8.194C17.8274 8.194 17.8677 8.18875 17.9079 8.17651C18.1406 8.11003 18.2736 7.86685 18.2071 7.63591C17.3586 4.69149 14.9705 2.46087 11.9736 1.8153V1.81355Z" fill="white"/>
</svg>
