<svg width="21" height="18" viewBox="0 0 21 18" fill="none" xmlns="http://www.w3.org/2000/svg">
<path d="M2.9708 15.604L1.62484 14.8268C1.43682 14.7187 1.20178 14.8534 1.20178 15.0712V16.6256C1.20178 16.8434 1.43682 16.9797 1.62484 16.87L2.9708 16.0928C3.15883 15.9847 3.15883 15.7121 2.9708 15.604Z" fill="white"/>
<path d="M3.00996 11.5032C3.12904 11.5032 3.23873 11.4672 3.33901 11.3935C3.43929 11.3199 3.5145 11.2181 3.56464 11.0849L4.10678 9.80942H7.22646L7.77017 11.0755C7.82657 11.2087 7.90492 11.3121 8.0052 11.3888C8.10548 11.4656 8.21986 11.5032 8.34521 11.5032C8.49093 11.5032 8.62569 11.4468 8.74791 11.3356C8.87012 11.2243 8.93123 11.0739 8.93123 10.8859C8.93123 10.8091 8.91399 10.7261 8.87952 10.6352L6.30669 4.5055C6.25812 4.37389 6.17977 4.27047 6.07166 4.19683C5.96354 4.12318 5.84603 4.08714 5.72068 4.08714C5.58749 4.07304 5.46371 4.10438 5.34932 4.18116C5.23494 4.25794 5.14876 4.36605 5.09235 4.5055L2.48819 10.7605C2.46782 10.831 2.45685 10.8968 2.45685 10.9595C2.45685 11.1131 2.50229 11.2416 2.59317 11.3465C2.68405 11.4515 2.8235 11.5032 3.01153 11.5032H3.00996ZM5.65957 6.15857L6.70938 8.60605H4.61759L5.658 6.15857H5.65957Z" fill="white"/>
<path d="M10.1424 11.4516H12.6432C13.3201 11.4516 13.8889 11.2886 14.3527 10.9596C14.8165 10.6321 15.1706 10.1903 15.415 9.63715C15.6595 9.08247 15.7817 8.46825 15.7817 7.79135C15.7817 7.28995 15.7143 6.81675 15.578 6.37489C15.4417 5.93303 15.2395 5.5413 14.9716 5.20286C14.7037 4.86441 14.373 4.60117 13.9829 4.41314C13.5927 4.22512 13.1462 4.1311 12.6448 4.1311H10.144C9.96225 4.1311 9.81026 4.19221 9.68961 4.31443C9.56896 4.43665 9.50629 4.58863 9.50629 4.76883V10.8139C9.50629 10.9956 9.5674 11.1476 9.68961 11.2683C9.81183 11.3905 9.96382 11.4516 10.144 11.4516H10.1424ZM10.8115 5.33291H12.5382C12.8657 5.33291 13.1477 5.39872 13.3859 5.5319C13.6225 5.66509 13.8184 5.84371 13.9719 6.07091C14.1255 6.29811 14.2383 6.55978 14.3119 6.85592C14.3856 7.15206 14.4216 7.46387 14.4216 7.79135C14.4216 8.23008 14.3574 8.63747 14.2289 9.01039C14.1004 9.38331 13.8951 9.68259 13.6162 9.90979C13.3373 10.137 12.9785 10.2498 12.5382 10.2498H10.8115V5.33291Z" fill="white"/>
<path opacity="0.5" d="M19.116 14.1246H0.940133C0.421493 14.1246 0 14.5461 0 15.0648V16.6317C0 17.1503 0.421493 17.5718 0.940133 17.5718H19.116C19.6347 17.5718 20.0562 17.1503 20.0562 16.6317V15.0648C20.0562 14.5461 19.6347 14.1246 19.116 14.1246ZM2.97082 16.0926L1.62486 16.8698C1.43684 16.9795 1.2018 16.8432 1.2018 16.6254V15.071C1.2018 14.8532 1.43684 14.7169 1.62486 14.8266L2.97082 15.6038C3.15885 15.7119 3.15885 15.9845 2.97082 16.0926ZM18.4893 16.1616H14.8463C14.7052 16.7022 14.2148 17.1017 13.6319 17.1017C13.049 17.1017 12.5586 16.7022 12.4176 16.1616H5.01404C4.84169 16.1616 4.70066 16.0206 4.70066 15.8482C4.70066 15.6759 4.84169 15.5348 5.01404 15.5348H12.4176C12.5586 14.9943 13.049 14.5947 13.6319 14.5947C14.2148 14.5947 14.7052 14.9943 14.8463 15.5348H18.4893C18.6616 15.5348 18.8027 15.6759 18.8027 15.8482C18.8027 16.0206 18.6616 16.1616 18.4893 16.1616Z" fill="white"/>
<path d="M18.4893 15.5347H14.8463C14.7052 14.9942 14.2148 14.5946 13.6319 14.5946C13.049 14.5946 12.5586 14.9942 12.4176 15.5347C12.3925 15.635 12.3784 15.74 12.3784 15.8481C12.3784 15.9562 12.3925 16.0612 12.4176 16.1615C12.5586 16.7021 13.049 17.1016 13.6319 17.1016C14.2148 17.1016 14.7052 16.7021 14.8463 16.1615H18.4893C18.6616 16.1615 18.8027 16.0205 18.8027 15.8481C18.8027 15.6758 18.6616 15.5347 18.4893 15.5347ZM14.1741 16.1615C14.066 16.3495 13.8638 16.4749 13.6319 16.4749C13.4 16.4749 13.1979 16.3495 13.0898 16.1615C13.0365 16.069 13.0052 15.9625 13.0052 15.8481C13.0052 15.7337 13.0365 15.6272 13.0898 15.5347C13.1979 15.3467 13.4 15.2214 13.6319 15.2214C13.8638 15.2214 14.066 15.3467 14.1741 15.5347C14.2273 15.6272 14.2587 15.7337 14.2587 15.8481C14.2587 15.9625 14.2273 16.069 14.1741 16.1615Z" fill="white"/>
<path d="M14.207 3.10307C15.2208 3.2629 16.0105 4.05261 16.1703 5.06639C16.1954 5.22151 16.3285 5.33119 16.479 5.33119C16.4946 5.33119 16.5119 5.33119 16.5291 5.32806C16.6999 5.30142 16.8174 5.14003 16.7892 4.96924C16.5855 3.68596 15.5874 2.68785 14.3041 2.48415C14.1349 2.45752 13.9719 2.57347 13.9453 2.74426C13.9187 2.91505 14.0346 3.07644 14.2054 3.10307H14.207Z" fill="white"/>
<path d="M14.6003 1.90605C16.0324 2.13325 17.148 3.24731 17.3752 4.68101C17.4003 4.83613 17.5335 4.94582 17.6839 4.94582C17.6996 4.94582 17.7168 4.94582 17.734 4.94268C17.9048 4.91605 18.0223 4.75466 17.9941 4.58387C17.7246 2.88222 16.4006 1.55664 14.6974 1.28713C14.5282 1.26049 14.3652 1.37644 14.3386 1.54724C14.3119 1.71803 14.4279 1.87942 14.5987 1.90605H14.6003Z" fill="white"/>
<path d="M19.268 4.26888C18.9186 2.0674 17.2044 0.353223 15.0029 0.0038069C14.8337 -0.0228302 14.6708 0.0931195 14.6441 0.26391C14.6175 0.434701 14.7334 0.596091 14.9042 0.622728C16.8378 0.928271 18.342 2.43405 18.6475 4.36602C18.6726 4.52115 18.8058 4.63083 18.9562 4.63083C18.9719 4.63083 18.9891 4.63083 19.0063 4.62769C19.1771 4.60106 19.2947 4.43967 19.2664 4.26888H19.268Z" fill="white"/>
</svg>
