<svg width="18" height="18" viewBox="0 0 18 18" fill="none" xmlns="http://www.w3.org/2000/svg">
<path d="M12.4466 6.78579C12.3295 6.90156 12.1928 6.99804 12.0757 7.11381C11.3728 7.82772 10.6895 8.54163 9.96714 9.25554C9.45953 9.75721 8.79573 9.7958 8.36621 9.39061C7.89765 8.94683 7.8586 8.2908 8.36621 7.76983C9.45953 6.61214 10.5724 5.45444 11.7243 4.35463C11.939 4.14239 12.3295 4.1038 12.6614 4.04591C13.5204 3.89155 14.2233 4.1038 14.4966 5.02995C14.5357 5.12643 14.6137 5.2229 14.7309 5.35797C14.9456 4.99136 15.1409 4.66335 15.3556 4.35463C15.4728 4.21957 15.668 4.0845 15.8437 4.06521C16.1952 4.02662 16.5661 4.04591 16.9175 4.06521C17.5618 4.1038 17.9913 4.4704 17.9913 5.08784C18.0108 6.86297 17.9913 8.61881 17.9913 10.3939C17.9913 10.8763 17.7375 11.2236 17.2494 11.3587C16.9175 11.4359 16.859 11.6095 16.8785 11.9182C16.8785 13.4425 16.8785 14.9668 16.8785 16.4911C16.8785 17.07 16.8199 17.591 16.2147 17.8804C15.6094 18.1505 15.1409 17.919 14.7309 17.4366C14.6528 17.5138 14.5747 17.5717 14.5161 17.6295C14.1452 17.9962 13.6961 18.1119 13.2276 17.8804C12.759 17.6681 12.5833 17.2822 12.5833 16.7806C12.5833 13.6934 12.5833 10.6062 12.5833 7.519C12.5833 7.30675 12.5833 7.09451 12.5833 6.86297L12.4466 6.80509V6.78579Z" fill="white"/>
<path opacity="0.5" d="M9.8811 4.66302C8.32774 4.13514 6.88944 4.29155 5.64292 5.38643C4.77994 6.14894 4.31969 7.12651 4.28133 8.2996C4.2238 9.80506 4.79912 10.9977 5.98811 11.858C7.1771 12.7182 8.50034 12.816 9.8811 12.3076C9.97699 13.6958 9.93863 15.0058 9.59344 16.2766C9.40167 16.9413 9.40167 17 8.69211 17C8.28939 17 7.88666 17 7.50312 16.9413C7.33052 16.9022 7.19628 16.6872 7.08122 16.5308C7.02368 16.4526 7.02368 16.3157 7.00451 16.1984C6.67849 14.6734 6.67849 14.6734 5.25937 14.2237C5.12513 14.1846 4.91418 14.2432 4.77994 14.3214C4.35804 14.5756 3.93614 14.8689 3.51424 15.1035C3.39918 15.1622 3.14987 15.1622 3.07316 15.1035C2.65126 14.7125 2.22936 14.3019 1.86499 13.8718C1.78828 13.774 1.78828 13.5394 1.86499 13.4221C2.07594 13.0115 2.34442 12.6205 2.59373 12.2099C2.65126 12.1121 2.7855 11.9948 2.74715 11.9166C2.51702 11.3105 2.28689 10.724 2.01841 10.1374C1.98006 10.0592 1.78828 10.0592 1.65404 10.0397C1.25132 9.94192 0.829418 9.88327 0.445872 9.74641C0.273276 9.68775 0.0623262 9.47268 0.0431489 9.29672C-0.014383 8.76883 -0.014383 8.22139 0.0431489 7.6935C0.0431489 7.53709 0.292454 7.40023 0.445872 7.26337C0.484227 7.22427 0.560936 7.24382 0.637645 7.22427C1.66043 7.00268 2.35721 6.39659 2.72797 5.40598C2.76632 5.28867 2.72797 5.09316 2.67044 4.9563C2.42113 4.52616 2.17183 4.09603 1.88417 3.6659C1.73075 3.45083 1.71157 3.25532 1.90335 3.0598C2.28689 2.68833 2.63208 2.27775 3.03481 1.92582C3.14987 1.82806 3.41835 1.88672 3.61013 1.88672C3.66766 1.88672 3.72519 1.94537 3.76354 1.98447C4.56899 2.72743 5.45115 2.9425 6.39083 2.25819C6.54425 2.14089 6.73602 1.98447 6.79356 1.80851C6.9278 1.35883 6.96615 0.889592 7.11957 0.439908C7.1771 0.263945 7.38805 0.0488787 7.54147 0.0293272C8.07843 -0.00977573 8.6154 -0.00977573 9.17154 0.0293272C9.30578 0.0293272 9.49755 0.166187 9.53591 0.283496C9.95781 1.6912 10.0921 3.13801 9.93863 4.66302H9.8811Z" fill="white"/>
<path d="M14.4732 3C13.639 3 13 2.33936 13 1.48232C13 0.660983 13.6922 -0.0175106 14.5087 0.000344543C15.3429 0.0181996 16.0174 0.696693 15.9997 1.51803C15.9997 2.33936 15.3074 3 14.4732 3Z" fill="white"/>
</svg>
