<svg width="17" height="20" viewBox="0 0 17 20" fill="none" xmlns="http://www.w3.org/2000/svg">
<path d="M7.64613 11.8454C6.60558 11.8454 5.56504 11.8454 4.5245 11.8454C4.14066 11.8454 4.13603 11.8365 4.10366 11.4611C4.01117 10.4155 3.90943 9.37442 3.81694 8.32884C3.72907 7.35027 3.6597 6.37171 3.57183 5.39315C3.50246 4.58438 3.41922 3.78008 3.3406 2.97132C3.33135 2.89536 3.28973 2.81939 3.24811 2.7479C2.86889 2.09553 2.92438 1.29123 3.41459 0.714814C3.9418 0.0981854 4.62624 -0.125231 5.43555 0.0669071C6.20787 0.250108 6.75357 0.862269 6.85069 1.60401C6.97555 2.52448 6.42522 3.35559 5.49105 3.62369C5.35231 3.66391 5.30606 3.71306 5.31069 3.84711C5.33844 4.88823 5.36618 5.92935 5.38931 6.97047C5.38931 7.15814 5.47255 7.20729 5.65291 7.20729C6.89231 7.20282 8.13171 7.20729 9.37574 7.20729C9.69483 7.20729 9.70408 7.21622 9.70408 7.5156C9.70408 7.88647 9.69483 8.26181 9.70408 8.63268C9.71333 8.84269 9.63934 8.91866 9.41736 8.91866C8.32132 8.90972 7.22991 8.91866 6.13387 8.90972C5.91652 8.90972 5.84715 8.96781 5.86102 9.17335C5.87952 9.41911 5.87489 9.66487 5.86102 9.91062C5.84715 10.1162 5.95351 10.1385 6.12925 10.1385C7.6785 10.1385 9.22775 10.1385 10.777 10.1385C11.2071 10.1385 11.6418 10.143 12.0719 10.1385C12.2338 10.1385 12.3216 10.1877 12.3817 10.3351C12.9321 11.6667 13.4917 12.9938 14.0512 14.3253C14.2362 14.7677 14.4305 15.2056 14.6062 15.648C14.6617 15.782 14.7218 15.8222 14.879 15.7775C15.2999 15.6569 15.73 15.5675 16.1508 15.4558C16.2896 15.4201 16.3635 15.4513 16.419 15.5809C16.5994 16.0054 16.7844 16.4344 16.974 16.8544C17.0295 16.9795 16.9971 17.0465 16.8676 17.0912C15.8918 17.3861 14.916 17.6855 13.9402 17.9849C13.783 18.034 13.7183 17.9581 13.6628 17.833C13.3622 17.1314 13.0523 16.4344 12.7517 15.7328C12.2153 14.4907 11.6834 13.2485 11.1562 12.0018C11.0961 11.8588 11.0082 11.8186 10.8602 11.8186C9.78733 11.8231 8.71904 11.8186 7.64613 11.8186C7.64613 11.8275 7.64613 11.8365 7.64613 11.8499V11.8454Z" fill="white"/>
<path opacity="0.5" d="M3.78833 7.00454C3.81151 7.1996 3.83468 7.36744 3.84395 7.53528C3.87176 8.00252 3.8903 8.46976 3.92738 8.937C3.94129 9.11845 3.8764 9.25001 3.75125 9.37702C3.1348 10.003 2.62031 10.6971 2.30513 11.5182C1.67013 13.1558 1.92042 14.6618 3.11162 15.9637C4.36308 17.3382 5.97606 17.9416 7.83934 17.7919C9.49404 17.6603 10.7316 16.8166 11.5937 15.4466C11.844 15.0519 12.034 14.621 12.2704 14.1719C12.3075 14.2445 12.3492 14.3035 12.3677 14.367C12.5763 15.0701 12.7849 15.7732 12.9888 16.4763C13.012 16.5535 12.9981 16.6623 12.9564 16.7213C12.0665 17.9325 10.9911 18.9305 9.56356 19.5157C8.18233 20.0827 6.76401 20.1553 5.33643 19.7153C3.28312 19.0847 1.7721 17.81 0.766306 15.9547C0.279629 15.0701 0.0247035 14.1175 0.00152844 13.1149C-0.0262816 11.8629 0.325979 10.7016 1.01196 9.64013C1.68867 8.59678 2.5925 7.77117 3.62611 7.07258C3.66319 7.0499 3.7049 7.03629 3.7837 7L3.78833 7.00454Z" fill="white"/>
</svg>
