<svg width="22" height="22" viewBox="0 0 22 22" fill="none" xmlns="http://www.w3.org/2000/svg">
<path d="M12.5022 6.02913C12.8459 5.19951 12.4519 4.24839 11.6223 3.90474C10.7927 3.5611 9.84153 3.95507 9.49789 4.78469C9.15425 5.61432 9.54822 6.56544 10.3778 6.90908C11.2075 7.25273 12.1586 6.85876 12.5022 6.02913Z" fill="white"/>
<path d="M16.4415 5.9675C16.3384 6.02422 16.237 6.07922 16.1339 6.13422C16.0789 6.16344 16.0256 6.19094 15.9706 6.21844C15.9156 6.24594 15.8606 6.27516 15.8056 6.30094C15.7437 6.33187 15.6801 6.36109 15.6183 6.39031C15.5719 6.41266 15.5237 6.435 15.4773 6.45734C15.4103 6.48828 15.345 6.5175 15.278 6.54672C15.235 6.56562 15.192 6.58453 15.149 6.60344C15.0803 6.63266 15.0115 6.66187 14.9428 6.68937C14.9015 6.70656 14.8603 6.72203 14.8208 6.73922C14.7503 6.76672 14.6815 6.79422 14.6111 6.82C14.5715 6.83547 14.532 6.84922 14.4925 6.86469C14.422 6.89047 14.3515 6.91453 14.2811 6.93859C14.2415 6.95234 14.202 6.96437 14.1642 6.97812C14.0937 7.00047 14.0233 7.02453 13.9528 7.04516C13.9133 7.05719 13.8737 7.06922 13.8359 7.07953C13.7655 7.10016 13.695 7.12078 13.6245 7.13969C13.585 7.15 13.5472 7.16031 13.5076 7.17062C13.4372 7.18953 13.3667 7.20672 13.2962 7.22391C13.2567 7.2325 13.2172 7.24109 13.1794 7.25141C13.1089 7.26687 13.0384 7.28234 12.968 7.29781C12.9284 7.30641 12.8906 7.31328 12.8511 7.32016C12.7806 7.33391 12.7101 7.34766 12.6397 7.35969C12.6019 7.36656 12.5623 7.37172 12.5245 7.37859C12.4523 7.39062 12.3819 7.40094 12.3097 7.41125C12.2736 7.41641 12.2375 7.41984 12.1997 7.425C12.1258 7.43359 12.0536 7.44391 11.9797 7.45078C11.947 7.45422 11.9126 7.45594 11.88 7.45938C11.8044 7.46625 11.727 7.47312 11.6514 7.47828C11.6273 7.47828 11.605 7.48 11.5809 7.48172C11.1959 7.50578 10.8092 7.50578 10.4242 7.48172C10.4001 7.48172 10.3778 7.48 10.3537 7.47828C10.2781 7.47312 10.2008 7.46625 10.1251 7.45938C10.0925 7.45594 10.0581 7.45422 10.0255 7.45078C9.95327 7.44391 9.87936 7.43359 9.80717 7.425C9.77108 7.41984 9.73327 7.41641 9.69717 7.41125C9.6267 7.40094 9.55452 7.39062 9.48405 7.37859C9.44623 7.37172 9.4067 7.36656 9.36889 7.35969C9.29842 7.34766 9.22795 7.33391 9.15748 7.32016C9.11795 7.31328 9.07842 7.30469 9.03889 7.29781C8.96842 7.28406 8.89795 7.26859 8.82749 7.25141C8.78795 7.24281 8.74842 7.23422 8.71061 7.22391C8.64014 7.20672 8.56967 7.18953 8.4992 7.17062C8.45967 7.16031 8.42014 7.15 8.38233 7.13969C8.31186 7.12078 8.24139 7.10016 8.17092 7.07953C8.13139 7.0675 8.09186 7.05719 8.05405 7.04516C7.98358 7.02281 7.91311 7.00047 7.84264 6.97812C7.80311 6.96437 7.76358 6.95234 7.72405 6.93859C7.65358 6.91453 7.58311 6.89047 7.51264 6.86469C7.47311 6.85094 7.43358 6.83547 7.39233 6.82C7.32186 6.79422 7.25311 6.76672 7.18264 6.73922C7.14139 6.72375 7.10186 6.70656 7.06061 6.68937C6.99186 6.66187 6.92311 6.63266 6.85436 6.60344C6.81139 6.58453 6.76842 6.56562 6.72545 6.54672C6.65842 6.5175 6.59311 6.48828 6.52608 6.45734C6.47967 6.435 6.43155 6.41266 6.38514 6.39031C6.32327 6.36109 6.25967 6.33016 6.1978 6.29922C6.14452 6.27172 6.08952 6.24422 6.03452 6.21672C5.97952 6.18922 5.92452 6.16 5.86952 6.1325C5.76639 6.07922 5.66499 6.02422 5.56186 5.96578C5.23014 5.78016 4.81077 5.89875 4.62686 6.23047C4.44123 6.56219 4.56155 6.98156 4.89155 7.16547C4.99123 7.22047 5.09092 7.27375 5.19061 7.32703C5.20608 7.33562 5.21983 7.3425 5.2353 7.35109C5.28686 7.37859 5.33842 7.40437 5.38999 7.43016C5.46217 7.46797 5.53608 7.50406 5.60827 7.54016C5.65983 7.56594 5.71139 7.59 5.76295 7.61406C5.83514 7.64844 5.90905 7.68281 5.98123 7.71719C6.0328 7.74125 6.08436 7.76359 6.13764 7.78594C6.20983 7.81859 6.28202 7.84953 6.3542 7.88047C6.40749 7.90281 6.45905 7.92344 6.51233 7.94578C6.58452 7.975 6.65498 8.00422 6.72717 8.03172C6.78045 8.05234 6.83545 8.07297 6.88874 8.09359C6.9592 8.11937 7.02967 8.14516 7.10014 8.17094C7.15514 8.18984 7.21014 8.20875 7.26514 8.22766C7.33389 8.25172 7.40264 8.27406 7.47139 8.29641C7.52811 8.31531 7.58483 8.3325 7.64155 8.34969C7.70858 8.37031 7.77561 8.38922 7.84264 8.40984C7.90108 8.42703 7.9578 8.4425 8.01623 8.45797C8.08155 8.47516 8.14858 8.49234 8.21389 8.50953C8.27233 8.525 8.33248 8.53875 8.39092 8.55422C8.45452 8.56969 8.51983 8.58344 8.58342 8.59719C8.64358 8.61094 8.70545 8.62469 8.76561 8.63672C8.82748 8.64875 8.89108 8.66078 8.95295 8.67281C8.98045 8.67797 9.00967 8.68312 9.03717 8.68828L9.28467 11.287V12.0742L7.27202 17.7495C7.10874 18.2102 7.34936 18.7155 7.80998 18.8787C7.90795 18.9131 8.00764 18.9303 8.10561 18.9303C8.46998 18.9303 8.8103 18.7034 8.9392 18.3408L10.749 13.2327H11.2544L13.0642 18.3408C13.1931 18.7034 13.5334 18.9303 13.8978 18.9303C13.9958 18.9303 14.0955 18.9131 14.1934 18.8787C14.654 18.7155 14.8947 18.2102 14.7314 17.7495L12.7205 12.0742V11.287L12.968 8.68828C12.9972 8.68312 13.0247 8.67797 13.0539 8.67281C13.1158 8.66078 13.1776 8.65047 13.2395 8.63672C13.3014 8.62469 13.3633 8.61094 13.4251 8.59719C13.4887 8.58344 13.5523 8.56969 13.6159 8.55422C13.6761 8.54047 13.7362 8.525 13.7964 8.50953C13.8617 8.49234 13.927 8.47687 13.9923 8.45797C14.0508 8.4425 14.1092 8.42531 14.1676 8.40812C14.2347 8.38922 14.3017 8.36859 14.3687 8.34969C14.4255 8.3325 14.4822 8.31359 14.5406 8.29641C14.6094 8.27406 14.6764 8.25172 14.7451 8.22937C14.8001 8.21047 14.8569 8.19156 14.9119 8.17094C14.9823 8.14687 15.0511 8.12109 15.1215 8.09531C15.1765 8.07469 15.2298 8.05406 15.2848 8.03344C15.3553 8.00594 15.4275 7.97672 15.498 7.9475C15.5512 7.92516 15.6028 7.90453 15.6561 7.88219C15.7283 7.85125 15.8005 7.82031 15.8744 7.78766C15.9259 7.76531 15.9775 7.74125 16.029 7.71891C16.103 7.68625 16.1751 7.65016 16.249 7.61578C16.3006 7.59172 16.3522 7.56766 16.402 7.54187C16.4759 7.50578 16.5481 7.46797 16.622 7.43016C16.6736 7.40437 16.7251 7.37859 16.775 7.35109C16.7905 7.3425 16.8042 7.33562 16.8197 7.32875C16.9194 7.27547 17.019 7.22219 17.1187 7.16719C17.4505 6.98156 17.569 6.56391 17.3834 6.23219C17.1978 5.90047 16.7801 5.78187 16.4484 5.9675H16.4415Z" fill="white"/>
<path d="M11 0C4.92422 0 0 4.92422 0 11C0 17.0758 4.92422 22 11 22C17.0758 22 22 17.0758 22 11C22 4.92422 17.0758 0 11 0ZM11 21.3125C5.31437 21.3125 0.6875 16.6856 0.6875 11C0.6875 5.31437 5.31437 0.6875 11 0.6875C16.6856 0.6875 21.3125 5.31437 21.3125 11C21.3125 16.6856 16.6856 21.3125 11 21.3125Z" fill="currentColor"/>
<path opacity="0.2" d="M11 1.70175C16.1263 1.70175 20.2982 5.87368 20.2982 11C20.2982 16.1263 16.1263 20.2982 11 20.2982C5.87368 20.2982 1.70175 16.1263 1.70175 11C1.70175 5.87368 5.87368 1.70175 11 1.70175ZM11 1C5.47719 1 1 5.47719 1 11C1 16.5228 5.47719 21 11 21C16.5228 21 21 16.5228 21 11C21 5.47719 16.5228 1 11 1Z" fill="currentColor"/>
</svg>

