<svg width="34" height="13" viewBox="0 0 34 13" fill="none" xmlns="http://www.w3.org/2000/svg">
<path d="M24.9231 12.2515C24.7975 12.5142 24.6091 12.7245 24.9231 12.9347C25.2371 13.0924 25.551 12.9347 25.7394 12.777C26.0534 12.4617 26.3046 12.1463 26.5557 11.831C27.4976 10.3069 27.8744 8.62504 28 6.68045C27.7488 4.73585 27.3093 2.58103 25.6766 0.794098C25.2998 0.373645 24.8603 -0.257035 24.2323 0.110861C23.6044 0.478758 24.4207 0.951768 24.6719 1.26711C26.8069 4.15773 27.3721 7.15346 25.9278 10.3594C25.6138 10.9901 25.2371 11.6208 24.8603 12.2515H24.9231Z" fill="white"/>
<path d="M31.6716 12.9244C32.1076 13.1855 32.3982 12.7155 32.592 12.3498C33.5607 10.6785 34.0451 8.90274 33.9967 6.91805C33.9967 4.67221 33.1732 1.90408 32.156 0.598357C31.9138 0.284984 31.5748 -0.185075 31.1873 0.0760689C30.7513 0.389442 31.1873 0.755044 31.381 1.01619C33.5607 4.56775 33.7061 8.17154 31.817 11.932C31.6716 12.2454 31.1873 12.611 31.6716 12.9244Z" fill="white"/>
<path d="M28.6498 12.9236C29.0904 13.1873 29.3842 12.7127 29.5801 12.3437C30.6083 10.6564 30.8531 8.70556 31 6.80743C31 4.90929 30.2656 2.22026 29.2863 0.796657C28.9925 0.374849 28.6498 -0.257864 28.1602 0.111218C27.7195 0.427575 28.307 0.849383 28.5029 1.21847C30.4614 4.75111 30.6573 8.28376 28.7967 11.9219C28.6498 12.2382 28.2091 12.66 28.6498 12.9236Z" fill="white"/>
<path d="M11.4023 0.174093C10.2069 -0.276776 8.6629 0.174093 7.86599 1.22612C6.47138 3.12979 5.12658 5.08355 3.78178 6.98721C2.63621 8.5903 1.54045 10.1433 0.394877 11.7464C0.14584 12.0971 -0.402041 12.7483 0.494492 12.8485C1.68987 12.9988 3.08448 13.3495 3.98101 11.9468C4.32966 11.3957 4.87754 11.1953 5.47523 11.1953C6.32196 11.1953 7.21849 11.1953 8.06522 11.1953C8.76252 11.1953 9.26059 11.3957 9.45982 12.1472C9.75867 13.0489 10.5058 12.9487 11.2031 12.8485C12 12.7984 12 12.1472 12 11.546C12 9.84271 12 8.13943 12 6.43615C12 4.73287 12 3.02959 12 1.32631C12 0.825347 12 0.324382 11.3525 0.123996L11.4023 0.174093ZM9.36021 6.73673C9.36021 8.5903 8.91194 8.99107 7.36791 8.74059C6.67061 8.6404 6.42157 8.33982 6.82003 7.63847C7.3181 6.88702 7.81618 6.13557 8.31425 5.38413C8.46368 5.13364 8.56329 4.83307 8.91194 4.88316C9.3104 4.93326 9.36021 5.33403 9.36021 5.63461C9.36021 5.98528 9.36021 6.38606 9.36021 6.73673Z" fill="white"/>
<path d="M15.3735 12.9962C16.5508 12.9455 17.7281 12.9962 18.9054 12.7428C21.3581 12.2866 23.0259 10.766 23.7126 8.28226C24.3994 5.84926 23.8598 3.619 22.0448 1.79425C20.1317 -0.131879 17.7281 -0.0305035 15.3245 0.020184C14.3924 0.020184 14 0.425685 14 1.38875C14 3.06144 14 4.73413 14 6.40682C14 8.1302 14 9.85357 14 11.577C14 12.5907 14.3924 13.0469 15.3735 12.9962ZM16.4036 4.12588C16.4036 3.2135 16.9432 2.90938 17.7771 2.90938C19.445 3.01075 20.9656 4.63275 20.9656 6.45751C20.9656 8.23157 19.494 9.90426 17.8262 10.0563C16.9432 10.107 16.4036 9.7522 16.4036 8.78914C16.4036 8.02882 16.4036 7.26851 16.4036 6.50819C16.4036 5.69719 16.4036 4.93688 16.4036 4.12588Z" fill="white"/>
</svg>
